<?xml version="1.0" standalone="no"?>
<!DOCTYPE svg PUBLIC "-//W3C//DTD SVG 20010904//EN"
 "http://www.w3.org/TR/2001/REC-SVG-20010904/DTD/svg10.dtd">
<svg version="1.0" xmlns="http://www.w3.org/2000/svg"
 width="485.000000pt" height="445.000000pt" viewBox="0 0 485.000000 445.000000"
 preserveAspectRatio="xMidYMid meet">
<metadata>
Created by potrace 1.16, written by Peter Selinger 2001-2019
</metadata>
<g transform="translate(0.000000,445.000000) scale(0.100000,-0.100000)"
fill="#000000" stroke="none">
<path d="M2427 3758 c-70 -93 -166 -272 -153 -285 3 -3 48 1 101 9 64 9 94 11
91 4 -2 -6 -29 -54 -59 -106 -31 -52 -54 -96 -53 -98 4 -3 72 13 101 24 8 3
-9 -51 -42 -131 -30 -75 -53 -139 -50 -141 2 -2 16 29 32 68 15 40 46 109 69
154 l42 81 -54 -14 c-30 -8 -56 -12 -58 -10 -2 2 23 48 56 102 33 54 58 100
55 103 -2 2 -50 -3 -107 -11 -56 -9 -103 -15 -104 -14 -5 5 87 180 125 237 43
65 47 80 8 28z"/>
<path d="M2428 3662 c-30 -45 -71 -123 -66 -127 2 -1 50 4 108 11 58 7 106 11
108 9 2 -2 -24 -44 -57 -94 -34 -50 -61 -92 -61 -94 0 -2 25 0 56 5 31 5 58 7
60 5 2 -2 -18 -41 -46 -87 -27 -46 -50 -88 -50 -94 0 -6 14 12 31 39 18 28 49
76 70 107 22 31 39 59 39 61 0 2 -23 0 -51 -5 -28 -5 -54 -8 -59 -6 -5 2 18
44 51 93 32 50 59 93 59 96 0 3 -53 -2 -117 -12 -65 -10 -120 -18 -121 -19 -2
0 14 34 37 75 44 82 47 96 9 37z"/>
<path d="M2225 3517 c-18 -40 -37 -85 -41 -101 l-7 -29 59 7 c32 4 74 10 93
13 18 3 32 2 29 -3 -2 -5 -25 -53 -51 -107 -26 -53 -47 -99 -47 -101 0 -2 24
2 53 10 70 18 68 19 50 -23 -19 -46 -55 -174 -50 -179 2 -2 14 29 26 69 13 39
34 96 47 125 12 28 22 52 21 52 -1 0 -27 -7 -57 -15 -30 -8 -56 -15 -58 -15
-2 0 22 48 52 107 31 58 54 108 52 111 -3 2 -46 -3 -98 -11 -51 -8 -94 -13
-96 -12 -3 3 23 71 52 138 30 68 5 38 -29 -36z"/>
<path d="M1479 2780 c18 -4 37 -14 42 -22 11 -16 12 -509 1 -524 -4 -6 -20
-16 -37 -21 -24 -8 -6 -10 85 -11 84 0 107 2 85 8 -49 16 -55 32 -55 167 l0
123 48 0 47 -1 68 -103 c37 -57 87 -125 111 -150 l42 -46 75 1 74 0 -43 19
c-23 11 -65 43 -92 71 -46 48 -170 219 -170 234 0 4 11 16 25 27 33 25 65 89
65 126 0 16 -10 42 -22 57 -37 47 -72 55 -235 54 -97 -1 -136 -4 -114 -9z
m260 -34 c23 -24 26 -34 26 -101 0 -98 -18 -119 -103 -120 l-57 0 0 118 c0
133 4 141 69 133 24 -3 49 -14 65 -30z"/>
<path d="M2130 2777 l35 -12 0 -270 0 -270 -35 -12 c-31 -11 -22 -12 80 -12
94 1 110 3 85 11 -16 6 -33 16 -37 22 -11 15 -10 508 1 524 5 8 24 18 42 22
23 5 -4 8 -86 8 -106 1 -116 -1 -85 -11z"/>
<path d="M2440 2777 l35 -12 0 -270 0 -270 -35 -12 c-30 -10 -18 -12 95 -11
102 0 121 2 91 9 -69 16 -66 5 -66 290 0 253 0 259 21 270 26 13 91 5 124 -17
73 -48 73 -222 0 -270 -12 -8 -42 -18 -66 -23 l-44 -9 39 -1 c128 -4 232 103
211 216 -8 45 -59 100 -103 113 -20 5 -104 10 -187 9 -130 0 -145 -2 -115 -12z"/>
<path d="M2949 2780 c18 -4 37 -14 42 -22 5 -7 8 -130 6 -273 l-2 -260 -35
-12 c-29 -10 -2 -12 171 -12 l206 -1 6 68 c3 37 4 68 2 70 -1 2 -11 -14 -21
-34 -28 -56 -64 -77 -138 -82 -104 -7 -106 -5 -106 148 l0 130 63 0 c71 0 106
-15 124 -50 11 -22 13 -16 12 55 0 56 -3 74 -9 58 -13 -33 -42 -43 -119 -43
l-71 0 0 115 c0 131 3 135 85 135 71 0 112 -22 135 -72 l19 -43 0 68 1 67
-202 -1 c-125 -1 -190 -4 -169 -9z"/>
</g>
</svg>
