<?xml version="1.0" standalone="no"?>
<!DOCTYPE svg PUBLIC "-//W3C//DTD SVG 20010904//EN"
 "http://www.w3.org/TR/2001/REC-SVG-20010904/DTD/svg10.dtd">
<svg version="1.0" xmlns="http://www.w3.org/2000/svg"
 width="496.000000pt" height="495.000000pt" viewBox="0 0 496.000000 495.000000"
 preserveAspectRatio="xMidYMid meet">
<metadata>
Created by potrace 1.16, written by Peter Selinger 2001-2019
</metadata>
<g transform="translate(0.000000,495.000000) scale(0.100000,-0.100000)"
fill="#000000" stroke="none">
<path d="M2523 2742 c-85 -113 -150 -221 -193 -320 -21 -48 -37 -88 -35 -90 1
-1 61 7 133 18 165 25 158 26 136 -7 -25 -38 -142 -247 -149 -266 -5 -12 7
-11 76 9 46 13 84 24 86 24 2 0 -10 -26 -26 -57 -48 -97 -156 -391 -147 -401
2 -2 12 21 22 50 25 78 108 270 158 365 24 46 40 83 37 83 -3 0 -39 -9 -78
-19 -40 -11 -73 -16 -73 -12 0 9 104 183 142 239 17 24 27 46 24 49 -5 6 -266
-34 -293 -44 -34 -13 91 234 181 360 62 87 69 97 62 97 -2 0 -31 -35 -63 -78z"/>
<path d="M2526 2613 c-65 -100 -110 -182 -104 -188 3 -4 185 17 268 31 l44 7
-18 -28 c-63 -96 -156 -248 -154 -250 2 -1 39 4 82 12 43 7 81 11 83 9 2 -2
-12 -29 -32 -61 -40 -62 -185 -353 -185 -370 0 -5 31 49 69 122 37 73 100 180
140 239 39 59 70 109 68 110 -1 2 -35 -2 -75 -8 -40 -6 -75 -8 -78 -5 -3 3 31
63 75 133 45 70 80 129 78 131 -3 2 -78 -8 -167 -22 -90 -14 -165 -24 -166
-22 -2 2 29 61 70 130 41 70 72 127 70 127 -3 0 -33 -44 -68 -97z"/>
<path d="M2316 2553 c-45 -78 -108 -210 -140 -290 -19 -52 -29 -50 137 -24 64
10 117 17 117 16 0 -1 -34 -68 -76 -149 -42 -81 -74 -149 -71 -152 3 -3 39 4
82 15 70 18 76 18 72 3 -3 -9 -23 -74 -45 -144 -22 -70 -43 -147 -46 -170 -7
-51 -8 -55 43 104 23 70 55 158 72 194 16 37 28 69 25 71 -2 2 -38 -5 -80 -15
l-76 -20 79 155 c66 131 75 154 57 149 -41 -10 -246 -38 -256 -34 -12 4 45
145 109 271 28 53 49 97 47 97 -2 0 -25 -35 -50 -77z"/>
</g>
</svg>
